<!-- MIT https://github.com/tailwindlabs/heroicons (information-circle, outline redrawn as filled) -->
<svg id="ⓘ" xmlns="http://www.w3.org/2000/svg" viewBox="0 0 24 24">
  <path fill-rule="evenodd" clip-rule="evenodd" d="M12 2.25C6.615 2.25 2.25 6.615 2.25 12S6.615 21.75 12 21.75 21.75 17.385 21.75 12 17.385 2.25 12 2.25ZM3.75 12A8.25 8.25 0 1 1 20.25 12 8.25 8.25 0 0 1 3.75 12ZM12 6.75a1.05 1.05 0 1 0 0 2.1 1.05 1.05 0 0 0 0-2.1ZM11.25 11a.75.75 0 0 0 0 1.5h.083a.25.25 0 0 1 .243.31l-.663 2.65a1.75 1.75 0 0 0 1.698 2.175h.139a.75.75 0 0 0 0-1.5h-.139a.25.25 0 0 1-.242-.31l.662-2.651A1.75 1.75 0 0 0 11.333 11H11.25Z"/>
</svg>
