<!-- MIT https://github.com/tailwindlabs/heroicons (arrow-path / history) -->
<svg id="◴" xmlns="http://www.w3.org/2000/svg" viewBox="0 0 24 24">
  <path fill-rule="evenodd" d="M12 5.25a6.75 6.75 0 1 0 6.6 8.226.75.75 0 0 1 1.463.328A8.25 8.25 0 1 1 12 3.75c2.31 0 4.397.95 5.898 2.481V4.5a.75.75 0 0 1 1.5 0v3.75a.75.75 0 0 1-.75.75H14.9a.75.75 0 0 1 0-1.5h1.964A6.727 6.727 0 0 0 12 5.25Zm0 2.25a.75.75 0 0 1 .75.75v3.19l2.03 2.03a.75.75 0 1 1-1.06 1.06l-2.25-2.25A.75.75 0 0 1 11.25 12V8.25A.75.75 0 0 1 12 7.5Z" clip-rule="evenodd"/>
</svg>
