<!-- MIT https://github.com/tailwindlabs/heroicons (paint-brush) -->
<svg id="m" xmlns="http://www.w3.org/2000/svg" viewBox="0 0 24 24">
  <path fill-rule="evenodd" d="M20.599 1.5c-.376 0-.743.111-1.055.32L11.203 7.4c-.29.193-.552.428-.777.696l-2.156 2.586a4.126 4.126 0 0 1 3.049 3.049l2.585-2.155c.268-.226.503-.487.696-.777l5.58-8.34c.209-.313.32-.68.32-1.056A.904.904 0 0 0 20.599 1.5ZM5.752 12a2.625 2.625 0 0 0-2.625 2.625c0 1.372-.61 2.602-1.573 3.435a.75.75 0 0 0 .365 1.31c.427.078.868.13 1.32.13 2.9 0 5.138-2.34 5.138-5.25A2.625 2.625 0 0 0 5.752 12Z" clip-rule="evenodd"/>
</svg>
